# xmcd CD database file
#
# Track frame offsets:
#	150
#	13667
#	36047
#	49127
#	74082
#	98477
#	117997
#	141095
#	162522
#	171762
#	194895
#	212372
#	226055
#	249865
#	273975
#	289635
#	309920
#	322070
#	335805
#
# Disc length: 4639 seconds
#
# Revision: 3
# Processed by: cddbd v1.5.1PL0 Copyright (c) Steve Scherf et al.
# Submitted via: CDex 1.51
#
DISCID=16121d13
DTITLE=John Lee Hooker - The Best Of
DYEAR=1994
DGENRE=Blues
TTITLE0=One Bourbon - One Scotch - One Beer
TTITLE1=Never Get Out Of This Bues Alive
TTITLE2=Mr Lucky
TTITLE3=I'm Bad Like Jesse James
TTITLE4=Bluebird
TTITLE5=Shake It Baby
TTITLE6=It's Serves You Right To Suffer
TTITLE7=Bang Bang Bang Bang
TTITLE8=Think Twice Before You Go
TTITLE9=Tantilizing With The Blues
TTITLE10=Peace Loving Man
TTITLE11=Stella Mae
TTITLE12=I Put My Trust In You
TTITLE13=The Waterfront
TTITLE14=I Can't Quit You
TTITLE15=This Land Is Nobody's Land
TTITLE16=Mad Man Blues
TTITLE17=Apologize
TTITLE18=I'm In The Mood
EXTD=YEAR: 1994
EXTT0=
EXTT1=
EXTT2=
EXTT3=
EXTT4=
EXTT5=
EXTT6=
EXTT7=
EXTT8=
EXTT9=
EXTT10=
EXTT11=
EXTT12=
EXTT13=
EXTT14=
EXTT15=
EXTT16=
EXTT17=
EXTT18=
PLAYORDER=
